<svg xmlns="http://www.w3.org/2000/svg" viewBox="0 0 64 64">
  <rect width="64" height="64" rx="14" fill="#f7f1df"/>
  <path d="M12 43c7 7 22 8 33 4 9-4 11-11 6-16s-13-7-22-6c-11 1-19 6-21 12-1 3 1 5 4 6Z" fill="#7aa95c"/>
  <path d="M18 22c4-7 13-10 19-6 7 3 9 12 5 18-3 6-11 8-17 4-7-3-10-11-7-16Z" fill="#5e9b58"/>
  <circle cx="33" cy="23" r="3" fill="#2d332a"/>
  <path d="M40 22c4-3 8-3 11 0 1 1 1 3-1 4-3 2-7 1-10-2-1-1-1-2 0-2Z" fill="#5e9b58"/>
  <path d="M18 39c6 3 16 4 24 1" fill="none" stroke="#467a42" stroke-width="3" stroke-linecap="round"/>
</svg>
