<svg xmlns="http://www.w3.org/2000/svg" viewBox="0 0 64 64" role="img" aria-label="Grass puffer">
  <rect width="64" height="64" rx="14" fill="#f4f0df"/>
  <path d="M47 30l13-6v16l-13-5Z" fill="#d5bf59"/>
  <path d="M6 34c0-9 9-17 24-17 11 0 20 6 21 15 1 8-7 14-21 15C15 48 6 43 6 34Z" fill="#b89f91"/>
  <path d="M7 36c6 8 16 11 29 9 8-1 13-5 15-11-5 3-13 5-23 5-9 0-16-1-21-3Z" fill="#f2ead2"/>
  <circle cx="16" cy="29" r="3.5" fill="#18202a"/>
  <path d="M8 31c-2 0-3-1-3-2s1-2 3-2" fill="none" stroke="#efe9d6" stroke-width="3" stroke-linecap="round"/>
  <path d="M31 31c4-3 9-3 13 0-3 3-9 3-13 0Z" fill="#1d2027"/>
  <path d="M41 25c3 0 6 1 8 3" fill="none" stroke="#1d2027" stroke-width="3" stroke-linecap="round"/>
  <circle cx="25" cy="25" r="1.5" fill="#fff7e9"/>
  <circle cx="32" cy="23" r="1.3" fill="#fff7e9"/>
  <circle cx="38" cy="27" r="1.4" fill="#fff7e9"/>
  <circle cx="24" cy="32" r="1.2" fill="#fff7e9"/>
  <path d="M27 40c3 1 5 3 7 6-5 1-8-1-10-4Z" fill="#d5bf59"/>
</svg>
