<svg xmlns="http://www.w3.org/2000/svg" viewBox="0 0 512 512" role="img" aria-label="Grass Puffer Diary">
  <rect width="512" height="512" rx="104" fill="#f7f1df"/>
  <path d="M112 354c46 52 166 58 252 20 69-31 82-86 48-130-32-42-96-57-163-52-86 6-151 46-169 94-9 24 7 50 32 68Z" fill="#7aa95c"/>
  <path d="M132 335c39 35 135 39 203 11 51-21 63-56 36-84-26-28-78-38-132-34-66 5-116 31-132 65-8 16 5 31 25 42Z" fill="#9ccf72"/>
  <path d="M146 171c30-49 92-68 142-42 51 26 69 87 41 138-22 41-80 56-129 31-50-25-78-81-54-127Z" fill="#5e9b58"/>
  <path d="M180 191c17-26 52-36 80-23 29 14 39 47 23 75-13 24-46 33-74 20-28-14-43-46-29-72Z" fill="#c9e89b"/>
  <circle cx="257" cy="184" r="17" fill="#2d332a"/>
  <circle cx="264" cy="178" r="5" fill="#ffffff"/>
  <path d="M320 178c26-20 58-20 80 1 10 10 4 28-10 35-24 12-52 4-72-20-5-6-4-12 2-16Z" fill="#5e9b58"/>
  <path d="M95 269c-34 0-59-14-68-35-5-13 7-25 20-19 28 11 49 24 62 40 6 7-4 14-14 14Z" fill="#5e9b58"/>
  <path d="M292 356c16 24 17 50 2 73-7 11-25 8-31-3-12-23-10-46 7-70 6-9 16-9 22 0Z" fill="#5e9b58"/>
  <path d="M136 372c-17 18-36 26-58 23-13-2-17-19-8-28 18-18 39-23 63-12 8 4 9 11 3 17Z" fill="#5e9b58"/>
  <path d="M137 302c43 25 123 28 184 5" fill="none" stroke="#467a42" stroke-width="18" stroke-linecap="round"/>
  <path d="M156 424h200" fill="none" stroke="#2d332a" stroke-width="20" stroke-linecap="round"/>
</svg>
